<svg width="172" height="26" viewBox="0 0 172 26" fill="none" xmlns="http://www.w3.org/2000/svg">
<path fill-rule="evenodd" clip-rule="evenodd" d="M24.977 2.13069V2.38056C25.7127 2.56628 26.267 2.94446 26.6432 3.51511C27.0195 4.08914 27.2076 4.88264 27.2076 5.89563C27.2076 6.96602 27.043 8.04991 26.7104 9.14732C26.3812 10.2447 25.9008 11.4232 25.2793 12.6793L24.6007 14.1751L21.2581 6.0881C21.0935 5.69978 20.9591 5.30472 20.8584 4.89615C20.7576 4.49095 20.7072 4.17693 20.7072 3.95407C20.7072 3.0694 21.1943 2.54264 22.1685 2.37719V2.12732H12.1979V2.37719C12.5842 2.45147 12.9134 2.56628 13.1889 2.7216C13.4644 2.8803 13.7264 3.15043 13.975 3.53875C14.2236 3.92706 14.5024 4.49771 14.8148 5.25407L16.4173 8.97849L13.5853 14.6006L9.38946 4.83537C9.2618 4.61251 9.17446 4.41667 9.12743 4.24108C9.08039 4.0655 9.06024 3.90342 9.06024 3.75485C9.06024 3.46108 9.16102 3.19095 9.36258 2.95121C9.56414 2.71147 9.85977 2.51901 10.2427 2.37043V2.12056H0.0772705V2.37043C0.88688 2.61017 1.60915 3.06264 2.25415 3.72784C2.89579 4.39303 3.53071 5.40939 4.15555 6.77355L10.6022 21.1985H10.8777L16.6927 9.61329L21.6747 21.1985H21.9502L27.8727 8.37745C28.7361 6.53043 29.5289 5.15615 30.2545 4.25121C30.9802 3.34628 31.736 2.71823 32.5288 2.36706V2.11719H24.977V2.13069Z" fill="#32302F"/>
<path d="M41.2565 15.09C40.6149 16.7344 39.1905 17.5549 36.9868 17.5549C35.6262 17.5549 34.5479 17.1261 33.7517 16.2685C32.9891 15.4479 32.5927 14.2222 32.5591 12.5981C33.0731 12.5981 33.5568 12.5981 34.0003 12.5981C34.7629 12.5981 35.5691 12.5981 36.4257 12.5981C37.2824 12.5981 38.0886 12.5981 38.8512 12.5981C39.6138 12.5981 40.4805 12.5981 41.4547 12.5981V12.4326C41.4547 11.2879 41.1591 10.2918 40.5746 9.44092C39.9867 8.59339 39.1972 7.92819 38.2062 7.44871C37.2152 6.96923 36.1032 6.72949 34.8737 6.72949C33.5501 6.72949 32.334 7.03339 31.2254 7.64456C30.1135 8.25235 29.2266 9.0965 28.5682 10.177C27.9064 11.2575 27.5771 12.5272 27.5771 13.9825C27.5771 15.3298 27.8795 16.5251 28.4875 17.5685C29.0922 18.6118 29.9287 19.429 30.9936 20.0199C32.0586 20.6108 33.2814 20.9046 34.6587 20.9046C36.4963 20.9046 38.0013 20.4251 39.1771 19.4661C40.3529 18.5072 41.1423 17.0755 41.5454 15.1744L41.2565 15.09ZM33.1302 8.44482C33.5165 7.56014 34.0843 7.11443 34.8368 7.11443C35.0954 7.11443 35.3272 7.16845 35.5389 7.27988C35.7505 7.39131 35.9286 7.56689 36.0764 7.80664C36.204 8.00923 36.3149 8.2456 36.4056 8.51235C36.4963 8.7791 36.5668 9.1404 36.6139 9.59287C36.6609 10.0453 36.6844 10.6498 36.6844 11.4061V12.0983H32.5557C32.5658 11.2643 32.6129 10.5586 32.7036 9.99469C32.8043 9.36663 32.9488 8.85001 33.1302 8.44482Z" fill="#32302F"/>
<path d="M57.069 18.6898C56.9582 18.7809 56.854 18.8316 56.7532 18.8417C56.6525 18.8518 56.545 18.8552 56.4375 18.8552C56.125 18.8552 55.8966 18.7202 55.7488 18.4534C55.601 18.1867 55.5271 17.6565 55.5271 16.8596V10.3799C55.5271 9.08665 55.2516 8.14795 54.7007 7.55704C54.1497 6.96613 53.2696 6.67236 52.0568 6.67236C51.0289 6.67236 49.927 6.80743 48.7512 7.07418C47.5754 7.34093 46.4265 7.74275 45.3078 8.27964C44.2799 8.75912 43.5039 9.28587 42.9798 9.85652C42.4557 10.4272 42.1937 11.0383 42.1937 11.6833C42.1937 12.2573 42.3852 12.7131 42.7715 13.0542C43.1578 13.3952 43.6618 13.5674 44.2866 13.5674C44.9652 13.5674 45.5732 13.3041 46.104 12.7773C46.6348 12.2505 46.9035 11.5077 46.9035 10.5487V10.0794C46.9035 9.23184 47.0917 8.59029 47.4679 8.1547C47.8442 7.72249 48.3078 7.50301 48.8587 7.50301C49.2988 7.50301 49.6616 7.61106 49.9471 7.82042C50.2327 8.03314 50.4443 8.39782 50.5821 8.91444C50.7198 9.43106 50.787 10.1503 50.787 11.0755V12.4937C49.3928 12.9157 48.1566 13.3344 47.0816 13.7464C45.8588 14.2157 44.8443 14.6817 44.038 15.1443C42.7715 15.8635 42.1366 16.7887 42.1366 17.9131C42.1366 18.7978 42.4893 19.5103 43.1982 20.0438C43.9036 20.5773 44.8275 20.8474 45.9663 20.8474C47.048 20.8474 48.0289 20.6313 48.899 20.1957C49.5978 19.8479 50.2495 19.2908 50.8475 18.5311C50.9852 19.3077 51.2539 19.875 51.6537 20.2363C52.1207 20.6617 52.7321 20.8744 53.4846 20.8744C54.2371 20.8744 54.9358 20.6989 55.5775 20.3477C56.2191 19.9965 56.77 19.5069 57.2303 18.8789L57.069 18.6898ZM49.1913 18.9363C48.1432 18.9363 47.6225 18.217 47.6225 16.7752C47.6225 15.8163 47.908 15.0261 48.4757 14.4082C48.9628 13.8781 49.7355 13.4087 50.7903 12.9934V16.9981C50.7903 17.6059 50.6425 18.082 50.3503 18.423C50.0546 18.7674 49.6683 18.9363 49.1913 18.9363Z" fill="#32302F"/>
<path fill-rule="evenodd" clip-rule="evenodd" d="M57.069 20.1819C57.5998 20.1448 57.9928 19.9388 58.2414 19.5573C58.49 19.1791 58.6143 18.4194 58.6143 17.2713V5.94611C58.6143 4.65286 58.4396 3.73442 58.0903 3.19078C57.7409 2.64715 57.2437 2.37364 56.6021 2.37364V2.06974C57.7207 1.80974 58.8696 1.51935 60.0454 1.19858C61.2212 0.874419 62.3231 0.540134 63.351 0.188965V17.8251C63.351 18.73 63.4485 19.3378 63.6399 19.6518C63.8314 19.9658 64.1674 20.1414 64.6444 20.1786V20.4825H57.069V20.1819Z" fill="#32302F"/>
<path fill-rule="evenodd" clip-rule="evenodd" d="M67.0397 20.1279C66.4887 19.6113 66.2133 18.7334 66.2133 17.4975V8.22194H64.1741L64.1204 7.99908C64.8359 7.66818 65.6018 7.1887 66.4215 6.56064C67.2379 5.93259 68.034 5.2235 68.8033 4.42999C69.576 3.63649 70.2546 2.83285 70.8425 2.02246L71.0911 2.10688V7.06376H74.175L73.5132 8.22532H71.0877V16.6432C71.0877 17.457 71.2053 18.0378 71.4472 18.389C71.6857 18.7401 72.0351 18.9157 72.4953 18.9157C72.717 18.9157 72.9421 18.8887 73.1705 18.8313C73.399 18.7773 73.6072 18.6827 73.7886 18.5544L73.9533 18.7773C73.1436 19.4593 72.3844 19.9861 71.6655 20.3542C70.95 20.7222 70.1975 20.9079 69.408 20.9079C68.3801 20.9045 67.5906 20.6445 67.0397 20.1279Z" fill="#32302F"/>
<path fill-rule="evenodd" clip-rule="evenodd" d="M88.7614 19.6012C88.5867 19.25 88.4994 18.568 88.4994 17.5516V10.4911C88.4994 7.94511 87.4714 6.66875 85.4155 6.66875C84.8276 6.66875 84.2901 6.74303 83.803 6.8916C83.3159 7.04017 82.7851 7.30693 82.2039 7.69524C81.6631 8.05654 80.9946 8.56978 80.2085 9.22147V0.192383C79.1234 0.543552 78.0349 0.874461 76.9431 1.18849C75.8513 1.50251 74.689 1.79628 73.4595 2.07316V2.37706C74.1011 2.37706 74.5983 2.65056 74.9477 3.1942C75.2971 3.73784 75.4717 4.65628 75.4717 5.94952V16.9978C75.4717 18.2337 75.3374 19.0643 75.072 19.4898C74.8066 19.9152 74.3867 20.1448 73.8189 20.182V20.4859H81.4783V20.182C81.0181 20.1448 80.6922 19.9524 80.5007 19.6012C80.3092 19.25 80.2118 18.568 80.2118 17.5516V9.71446C80.6217 9.36667 80.9912 9.11342 81.3137 8.96823C81.6799 8.80277 82.0124 8.71836 82.3047 8.71836C82.7817 8.71836 83.1546 8.91758 83.42 9.31264C83.6854 9.71108 83.8198 10.3965 83.8198 11.3758V17.5212C83.8198 18.2404 83.7828 18.7874 83.7089 19.1555C83.635 19.5235 83.5107 19.7802 83.336 19.9152C83.1614 20.0537 82.8993 20.1415 82.5499 20.1786V20.4825H89.7121V20.1786C89.2519 20.1482 88.9361 19.9524 88.7614 19.6012Z" fill="#32302F"/>
<path fill-rule="evenodd" clip-rule="evenodd" d="M94.8352 20.6955C94.1936 20.574 93.5922 20.4592 93.0312 20.3477C92.4702 20.2363 91.9965 20.1823 91.6136 20.1823C91.3918 20.1823 91.1769 20.2093 90.9652 20.2667C90.7536 20.3207 90.5822 20.3883 90.4546 20.4592V14.2563L90.7301 14.2023C91.7043 15.7353 92.5844 16.9475 93.3739 17.8423C94.1633 18.7371 94.899 19.3753 95.5776 19.7534C96.2562 20.1316 96.9281 20.3207 97.5899 20.3207C98.2315 20.3207 98.7018 20.1789 98.9941 19.8919C99.2864 19.6049 99.4342 19.2233 99.4342 18.7438C99.4342 18.1529 99.236 17.6836 98.8429 17.3324C98.4465 16.9812 97.7444 16.6031 96.7366 16.1979L94.7815 15.4212C93.2194 14.7932 92.1242 14.1584 91.4893 13.5101C90.8544 12.8651 90.5386 12.0615 90.5386 11.1025C90.5386 10.2719 90.7536 9.52565 91.1869 8.86046C91.6169 8.19526 92.2384 7.66513 93.048 7.27007C93.8543 6.87163 94.8184 6.67578 95.9404 6.67578C96.5283 6.67578 97.1095 6.72305 97.6907 6.81422C98.2685 6.90539 98.7892 6.99318 99.2461 7.0776C99.7063 7.16201 100.052 7.20253 100.294 7.20253C100.479 7.20253 100.63 7.18903 100.748 7.16201C100.865 7.135 100.963 7.10124 101.037 7.06409L101.423 12.1324L101.174 12.1864C100.072 10.434 99.0613 9.16435 98.1442 8.38098C97.2271 7.5976 96.3436 7.20591 95.5004 7.20591C94.9494 7.20591 94.4993 7.34773 94.1499 7.63474C93.8005 7.92176 93.6258 8.31344 93.6258 8.80981C93.6258 9.34669 93.8039 9.78903 94.1633 10.1402C94.5228 10.4914 95.1241 10.8054 95.9673 11.0823L98.2819 11.8589C99.7332 12.3384 100.775 12.8989 101.41 13.5337C102.044 14.1719 102.36 14.9789 102.36 15.9547C102.36 17.4675 101.85 18.6695 100.832 19.5542C99.8138 20.4389 98.4566 20.8846 96.7702 20.8846C96.1219 20.8745 95.4768 20.8171 94.8352 20.6955Z" fill="#32302F"/>
<path fill-rule="evenodd" clip-rule="evenodd" d="M106.183 5.8146C107.009 5.8146 107.695 5.52759 108.236 4.95694C108.776 4.38629 109.049 3.71097 109.049 2.93434C109.049 2.17798 108.787 1.51278 108.262 0.942135C107.738 0.371486 107.046 0.0844727 106.183 0.0844727C105.686 0.0844727 105.222 0.219538 104.792 0.486291C104.359 0.753044 104.013 1.10421 103.744 1.5398C103.479 1.97538 103.344 2.44136 103.344 2.93772C103.344 3.73123 103.63 4.40993 104.198 4.97382C104.769 5.53097 105.431 5.8146 106.183 5.8146Z" fill="#32302F"/>
<path fill-rule="evenodd" clip-rule="evenodd" d="M133.69 19.6586C133.498 19.3446 133.401 18.7368 133.401 17.8319V10.4945C133.401 7.94851 132.373 6.67215 130.317 6.67215C129.749 6.67215 129.191 6.75994 128.651 6.93553C128.11 7.11111 127.545 7.39137 126.957 7.77968C126.433 8.1241 125.842 8.56981 125.187 9.10669C125.096 8.4415 124.818 7.89111 124.34 7.46228C123.753 6.93553 123 6.67215 122.083 6.67215C121.183 6.67215 120.292 6.88488 119.412 7.31033C118.619 7.69189 117.823 8.26929 117.017 9.03579V6.67215C116.392 6.91189 115.687 7.16514 114.897 7.43189C114.108 7.69864 113.335 7.94514 112.583 8.16462C111.83 8.38747 111.178 8.56981 110.628 8.71838V8.99527C111.232 9.04929 111.662 9.29916 111.907 9.7415C112.156 10.1838 112.28 11.0415 112.28 12.3179V17.8285C112.28 18.7132 112.116 19.3277 111.783 19.6688C111.454 20.0098 111.047 20.182 110.57 20.182C110.003 20.182 109.573 20.0132 109.29 19.6688C109.005 19.3277 108.864 18.7132 108.864 17.8285V6.61475C107.836 7.01994 106.751 7.39475 105.612 7.73579C104.473 8.07682 103.307 8.3976 102.115 8.69137V8.96825C102.851 9.02228 103.371 9.3228 103.684 9.86981C103.996 10.4134 104.151 11.315 104.151 12.5677V16.9979C104.151 18.1797 104.023 18.9968 103.764 19.4493C103.506 19.9018 103.086 20.1449 102.498 20.182V20.4859H110.57H118.284V20.182C117.843 20.128 117.521 19.922 117.319 19.5742C117.118 19.2231 117.017 18.6322 117.017 17.8015V9.60306C117.346 9.31605 117.645 9.10669 117.914 8.98176C118.253 8.82643 118.599 8.7454 118.949 8.7454C119.479 8.7454 119.876 8.93449 120.135 9.31267C120.393 9.69085 120.521 10.3797 120.521 11.3758V17.7981C120.521 18.7031 120.423 19.3109 120.232 19.6249C120.04 19.9389 119.721 20.1246 119.281 20.1786V20.4825H126.497V20.1786C126.02 20.1246 125.688 19.949 125.506 19.6519C125.321 19.3581 125.231 18.7368 125.231 17.7981V9.60643C125.577 9.30254 125.889 9.06617 126.168 8.89734C126.517 8.68462 126.867 8.57994 127.216 8.57994C127.693 8.57994 128.066 8.78592 128.331 9.20124C128.597 9.61656 128.731 10.3425 128.731 11.3758V17.7981C128.731 18.7571 128.647 19.3818 128.483 19.6688C128.318 19.9558 127.979 20.1246 127.465 20.182V20.4859H134.765V20.182C134.237 20.1483 133.881 19.9727 133.69 19.6586Z" fill="#32302F"/>
<path d="M149.529 10.5754C149.317 9.70762 148.982 8.99853 148.525 8.44476C147.55 7.24606 146.338 6.64502 144.89 6.64502C144.1 6.64502 143.371 6.79697 142.7 7.10086C142.112 7.36762 141.49 7.77281 140.842 8.30294V6.64502C140.2 6.88476 139.478 7.13463 138.678 7.39125C137.879 7.65125 137.086 7.89437 136.297 8.12398C135.507 8.35359 134.781 8.55281 134.12 8.71827V8.96814C134.634 9.02216 135.033 9.15385 135.319 9.35645C135.605 9.55905 135.809 9.89333 135.937 10.3526C136.065 10.8151 136.129 11.4601 136.129 12.2907V21.6507C136.129 22.6468 136.045 23.4133 135.88 23.9502C135.715 24.4837 135.467 24.8585 135.138 25.0713C134.808 25.284 134.395 25.419 133.898 25.4731V25.777H142.904V25.4731C142.132 25.3988 141.594 25.1692 141.292 24.7809C140.99 24.3926 140.838 23.6632 140.838 22.5928V20.0468C141.198 20.3001 141.547 20.4858 141.887 20.6006C142.327 20.7492 142.861 20.8235 143.486 20.8235C144.349 20.8235 145.165 20.6614 145.938 20.3372C146.711 20.0131 147.379 19.5403 147.95 18.9123C148.538 18.2674 149.002 17.4739 149.341 16.5318C149.68 15.5897 149.852 14.5666 149.852 13.459C149.845 12.4022 149.741 11.4432 149.529 10.5754ZM144.06 18.605C143.546 19.5471 142.911 20.0164 142.159 20.0164C141.829 20.0164 141.544 19.9557 141.305 19.8375C141.161 19.7632 141.003 19.6551 140.838 19.5167V8.85671C141.453 8.3806 141.977 8.14086 142.407 8.14086C143.106 8.14086 143.684 8.60684 144.144 9.53879C144.604 10.4707 144.833 11.9328 144.833 13.9284C144.833 16.1029 144.574 17.6629 144.06 18.605Z" fill="#32302F"/>
<path fill-rule="evenodd" clip-rule="evenodd" d="M149.707 20.1819C150.238 20.1448 150.631 19.9388 150.88 19.5573C151.128 19.1791 151.252 18.4194 151.252 17.2713V5.94611C151.252 4.65286 151.078 3.73442 150.728 3.19078C150.379 2.64715 149.882 2.37364 149.24 2.37364V2.06974C150.359 1.80974 151.508 1.51935 152.684 1.19858C153.859 0.874419 154.961 0.540134 155.989 0.188965V17.8251C155.989 18.73 156.087 19.3378 156.278 19.6518C156.47 19.9658 156.806 20.1414 157.283 20.1786V20.4825H149.707V20.1819Z" fill="#32302F"/>
<path d="M170.834 15.09C170.193 16.7344 168.768 17.5549 166.565 17.5549C165.204 17.5549 164.126 17.1261 163.329 16.2685C162.567 15.4479 162.17 14.2222 162.137 12.5981C162.651 12.5981 163.135 12.5981 163.578 12.5981C164.341 12.5981 165.147 12.5981 166.004 12.5981C166.86 12.5981 167.666 12.5981 168.429 12.5981C169.192 12.5981 170.058 12.5981 171.032 12.5981V12.4326C171.032 11.2879 170.737 10.2918 170.152 9.44092C169.564 8.59339 168.775 7.92819 167.784 7.44871C166.793 6.96923 165.681 6.72949 164.451 6.72949C163.128 6.72949 161.912 7.03339 160.803 7.64456C159.691 8.25235 158.804 9.0965 158.146 10.177C157.484 11.2575 157.155 12.5272 157.155 13.9825C157.155 15.3298 157.457 16.5251 158.065 17.5685C158.67 18.6118 159.506 19.429 160.571 20.0199C161.636 20.6108 162.859 20.9046 164.236 20.9046C166.074 20.9046 167.579 20.4251 168.755 19.4661C169.931 18.5072 170.72 17.0755 171.123 15.1744L170.834 15.09ZM162.708 8.44482C163.094 7.56014 163.662 7.11443 164.415 7.11443C164.673 7.11443 164.905 7.16845 165.117 7.27988C165.328 7.39131 165.506 7.56689 165.654 7.80664C165.782 8.00923 165.893 8.2456 165.983 8.51235C166.074 8.7791 166.145 9.1404 166.192 9.59287C166.239 10.0453 166.262 10.6498 166.262 11.4061V12.0983H162.134C162.144 11.2643 162.191 10.5586 162.281 9.99469C162.382 9.36663 162.527 8.85001 162.708 8.44482Z" fill="#32302F"/>
</svg>
